<mxfile>
    <diagram id="UcIqH6loUhVxflHx_5Ts" name="Page-1">
        <mxGraphModel dx="1111" dy="1366" grid="1" gridSize="10" guides="1" tooltips="1" connect="0" arrows="1" fold="1" page="1" pageScale="1" pageWidth="827" pageHeight="583" math="0" shadow="0">
            <root>
                <mxCell id="0"/>
                <mxCell id="1" parent="0"/>
                <mxCell id="2" value="" style="shape=curlyBracket;whiteSpace=wrap;html=1;rounded=1;" vertex="1" parent="1">
                    <mxGeometry x="132" y="155" width="20" height="270" as="geometry"/>
                </mxCell>
                <mxCell id="3" value="Actuadores en Robotica" style="rounded=0;whiteSpace=wrap;html=1;" vertex="1" parent="1">
                    <mxGeometry x="12" y="260" width="120" height="60" as="geometry"/>
                </mxCell>
                <mxCell id="4" value="Hidraulicos" style="rounded=1;whiteSpace=wrap;html=1;" vertex="1" parent="1">
                    <mxGeometry x="152" y="120" width="120" height="60" as="geometry"/>
                </mxCell>
                <mxCell id="5" value="Neumaticos" style="rounded=1;whiteSpace=wrap;html=1;" vertex="1" parent="1">
                    <mxGeometry x="152" y="260" width="120" height="60" as="geometry"/>
                </mxCell>
                <mxCell id="6" value="Electricos" style="rounded=1;whiteSpace=wrap;html=1;" vertex="1" parent="1">
                    <mxGeometry x="152" y="400" width="120" height="60" as="geometry"/>
                </mxCell>
                <mxCell id="8" value="" style="shape=curlyBracket;whiteSpace=wrap;html=1;rounded=1;size=0.5;" vertex="1" parent="1">
                    <mxGeometry x="272" y="392.5" width="20" height="75" as="geometry"/>
                </mxCell>
                <mxCell id="9" value="" style="shape=curlyBracket;whiteSpace=wrap;html=1;rounded=1;size=0.5;" vertex="1" parent="1">
                    <mxGeometry x="272" y="245" width="20" height="90" as="geometry"/>
                </mxCell>
                <mxCell id="10" value="" style="shape=curlyBracket;whiteSpace=wrap;html=1;rounded=1;size=0.5;" vertex="1" parent="1">
                    <mxGeometry x="272" y="115" width="20" height="70" as="geometry"/>
                </mxCell>
                <mxCell id="11" value="Cilindros Hidraulicos&lt;br&gt;Motores Hidraulicos&lt;br&gt;Valvulas Hidraulicas" style="rounded=1;whiteSpace=wrap;html=1;" vertex="1" parent="1">
                    <mxGeometry x="645" y="120" width="120" height="60" as="geometry"/>
                </mxCell>
                <mxCell id="12" value="Obtienen su energia de un fluido a presion." style="rounded=0;whiteSpace=wrap;html=1;" vertex="1" parent="1">
                    <mxGeometry x="292" y="120" width="120" height="60" as="geometry"/>
                </mxCell>
                <mxCell id="13" value="Transforman la energia acumulada en el aire comprimido en trabajo mecanico." style="rounded=0;whiteSpace=wrap;html=1;" vertex="1" parent="1">
                    <mxGeometry x="292" y="250" width="120" height="80" as="geometry"/>
                </mxCell>
                <mxCell id="14" value="Transforman la energia electrica en energia mecanica rotacional" style="rounded=0;whiteSpace=wrap;html=1;" vertex="1" parent="1">
                    <mxGeometry x="292" y="400" width="120" height="60" as="geometry"/>
                </mxCell>
                <mxCell id="15" value="como:" style="text;html=1;strokeColor=none;fillColor=none;align=center;verticalAlign=middle;whiteSpace=wrap;rounded=0;" vertex="1" parent="1">
                    <mxGeometry x="602" y="420" width="40" height="20" as="geometry"/>
                </mxCell>
                <mxCell id="16" value="como:" style="text;html=1;strokeColor=none;fillColor=none;align=center;verticalAlign=middle;whiteSpace=wrap;rounded=0;" vertex="1" parent="1">
                    <mxGeometry x="602" y="280" width="40" height="20" as="geometry"/>
                </mxCell>
                <mxCell id="17" value="como:" style="text;html=1;strokeColor=none;fillColor=none;align=center;verticalAlign=middle;whiteSpace=wrap;rounded=0;" vertex="1" parent="1">
                    <mxGeometry x="602" y="140" width="40" height="20" as="geometry"/>
                </mxCell>
                <mxCell id="19" value="Cilindros Nehumaticos&lt;br&gt;Motores Nehumaticos" style="rounded=1;whiteSpace=wrap;html=1;" vertex="1" parent="1">
                    <mxGeometry x="645" y="260" width="130" height="60" as="geometry"/>
                </mxCell>
                <mxCell id="20" value="Motores de corriente continua&lt;br&gt;Motores de corriente alterna&lt;br&gt;Motores de paso a paso" style="rounded=1;whiteSpace=wrap;html=1;" vertex="1" parent="1">
                    <mxGeometry x="645" y="400" width="170" height="60" as="geometry"/>
                </mxCell>
                <mxCell id="21" value="Son:" style="text;html=1;strokeColor=none;fillColor=none;align=center;verticalAlign=middle;whiteSpace=wrap;rounded=0;" vertex="1" parent="1">
                    <mxGeometry x="412" y="140" width="40" height="20" as="geometry"/>
                </mxCell>
                <mxCell id="22" value="Son:" style="text;html=1;strokeColor=none;fillColor=none;align=center;verticalAlign=middle;whiteSpace=wrap;rounded=0;" vertex="1" parent="1">
                    <mxGeometry x="412" y="280" width="40" height="20" as="geometry"/>
                </mxCell>
                <mxCell id="23" value="Son:" style="text;html=1;strokeColor=none;fillColor=none;align=center;verticalAlign=middle;whiteSpace=wrap;rounded=0;" vertex="1" parent="1">
                    <mxGeometry x="412" y="420" width="40" height="20" as="geometry"/>
                </mxCell>
                <mxCell id="24" value="-&lt;span&gt;Rapidos&lt;/span&gt;&lt;div&gt;-Alta capacidad de carga&lt;/div&gt;&lt;div&gt;-Presentan estabilidad frente a cargas estaticas&lt;/div&gt;" style="rounded=0;whiteSpace=wrap;html=1;" vertex="1" parent="1">
                    <mxGeometry x="452" y="115" width="150" height="65" as="geometry"/>
                </mxCell>
                <mxCell id="25" value="&lt;div&gt;-Bajo costo&lt;/div&gt;&lt;div&gt;-Rapidez&lt;/div&gt;&lt;div&gt;-Sencillos&lt;/div&gt;&lt;div&gt;-Robustos&lt;/div&gt;" style="rounded=0;whiteSpace=wrap;html=1;" vertex="1" parent="1">
                    <mxGeometry x="452" y="257.5" width="150" height="65" as="geometry"/>
                </mxCell>
                <mxCell id="26" value="&lt;div&gt;-Precisos y fiables&lt;/div&gt;&lt;div&gt;-Silenciosos&lt;/div&gt;&lt;div&gt;-Son de una facil instalacion&lt;/div&gt;" style="rounded=0;whiteSpace=wrap;html=1;" vertex="1" parent="1">
                    <mxGeometry x="452" y="397.5" width="150" height="65" as="geometry"/>
                </mxCell>
            </root>
        </mxGraphModel>
    </diagram>
</mxfile>